<!DOCTYPE svg PUBLIC "-//W3C//DTD SVG 1.1//EN" "http://www.w3.org/Graphics/SVG/1.1/DTD/svg11.dtd">
<!-- Uploaded to: SVG Repo, www.svgrepo.com, Transformed by: SVG Repo Mixer Tools -->
<svg fill="#ABB2BF" width="800px" height="800px" viewBox="0 0 24 24" xmlns="http://www.w3.org/2000/svg">
<g id="SVGRepo_bgCarrier" stroke-width="0"/>
<g id="SVGRepo_tracerCarrier" stroke-linecap="round" stroke-linejoin="round"/>
<g id="SVGRepo_iconCarrier">
<path d="M22,3a1,1,0,0,1-1,1H3A1,1,0,0,1,3,2H21A1,1,0,0,1,22,3Zm-5,7a1,1,0,0,0,0-2H7a1,1,0,0,0,0,2Zm4,4H3a1,1,0,0,0,0,2H21a1,1,0,0,0,0-2Zm-4,8a1,1,0,0,0,0-2H7a1,1,0,0,0,0,2Z"/>
</g>
</svg>