<!DOCTYPE svg PUBLIC "-//W3C//DTD SVG 1.1//EN" "http://www.w3.org/Graphics/SVG/1.1/DTD/svg11.dtd">
<!-- Uploaded to: SVG Repo, www.svgrepo.com, Transformed by: SVG Repo Mixer Tools -->
<svg fill="#ABB2BF" width="64px" height="64px" viewBox="0 0 24 24" xmlns="http://www.w3.org/2000/svg" transform="matrix(-1, 0, 0, 1, 0, 0)">
<g id="SVGRepo_bgCarrier" stroke-width="0"/>
<g id="SVGRepo_tracerCarrier" stroke-linecap="round" stroke-linejoin="round"/>
<g id="SVGRepo_iconCarrier">
<path d="M2,3A1,1,0,0,1,3,2H21a1,1,0,0,1,0,2H3A1,1,0,0,1,2,3Zm1,7H15a1,1,0,0,0,0-2H3a1,1,0,0,0,0,2Zm0,6H21a1,1,0,0,0,0-2H3a1,1,0,0,0,0,2Zm0,6H15a1,1,0,0,0,0-2H3a1,1,0,0,0,0,2Z"/>
</g>
</svg>