<!DOCTYPE svg PUBLIC "-//W3C//DTD SVG 1.1//EN" "http://www.w3.org/Graphics/SVG/1.1/DTD/svg11.dtd">
<!-- Uploaded to: SVG Repo, www.svgrepo.com, Transformed by: SVG Repo Mixer Tools -->
<svg fill="#65666C" width="800px" height="800px" viewBox="-0.71 0 100 100" xmlns="http://www.w3.org/2000/svg" stroke="#65666C">
<g id="SVGRepo_bgCarrier" stroke-width="0"/>
<g id="SVGRepo_tracerCarrier" stroke-linecap="round" stroke-linejoin="round" stroke="#54555a" stroke-width="1.6"> <path id="gears2" d="M596.82,628.544a32.171,32.171,0,0,1-.693-5.506c.179-1.675-1.464-1.524-1.378-3.1v-3.792c.365-.359.71-2.458,0-2.753-1.853-1.238-2.577,1.211-3.789,1.722-1,.953-2.161,1.742-3.1,2.757-2.425,1.592-4.337,3.7-7.233,4.823-3.81-.9-5.282-4.462-8.268-6.548-1.927-2.894-4.854-4.789-5.855-8.608-.017-1.166.8-1.495,1.38-2.068.573-.458.535-1.533,1.033-2.068,3-2.858,6.174-5.537,8.612-8.955.234-2.074-1.023-2.651-.691-4.823-4.768.517-9.032,1.531-14.467,1.377a21.915,21.915,0,0,1-2.757-8.957v-6.2c-.325-1.609-.714-4.667,0-6.2,1.607-1.8,4.352-.8,6.889-.687,1.3.058,2.65.031,3.978.005,1.234-.025,2.452-.049,3.6-.005.787-1.166.7-3.2,1.375-4.478-2.216-4.79-6.781-7.229-8.266-12.747-.337-1.715,1.394-1.364,1.724-2.413.082-1.3,1.3-1.458,1.374-2.754,2.272-1.75,3.935-4.109,6.2-5.856.712-1.245,2.045-1.859,2.757-3.1,1.5-.455,1.668-2.24,3.79-2.07,1.894-.059,2.035,1.639,2.757,2.757.747,1.085.936,2.738,2.064,3.446.847,2.829,3.164,4.188,4.135,6.891,1.45-.392,2.044-1.633,3.446-2.068.415-4.868-1.1-11.663,1.381-14.472,1.228-.77,3.275-.721,5.323-.673a14.216,14.216,0,0,0,4.66-.357h7.582c2.576-.165,4.873-.047,5.856,1.377a9.742,9.742,0,0,1-1.377,5.17c-.008,2.686-.915,6.13,0,8.608a7.374,7.374,0,0,0,3.79,1.035c1.534-.415,2.1-1.8,2.754-3.1,1.187-.652,1.753-1.922,2.413-3.1,1.854-.9,2.608-2.9,4.823-3.443,2.291,0,2.588,2,4.134,2.753,3.044,3.614,6.845,6.476,9.646,10.337.74.29-.133,2.2.686,2.41.306.726,1.049,1.019,1.036,2.066-.356,1.943-2.245,2.352-2.069,4.826a15.789,15.789,0,0,0-3.1,3.1c-.819,1.13-1.921,1.979-2.413,3.441,5.171-.156,11.12-1.219,16.195-.338,1.59,2.062.523,4.714,1.033,7.919-.4,5.225-.795,10.461-1.377,15.5.092,1.359-1.472,1.052-1.38,2.412-.528.734-1.244,1.282-1.722,2.065a29.091,29.091,0,0,1-5.727.064,48.589,48.589,0,0,0-5.3-.064c-.822.1.383.931.686,1.035-.248.939.688.694.691,1.378.995.5,1.327,1.655,2.065,2.41,1.35,1.639,3.081,2.893,3.791,5.169a2.941,2.941,0,0,1-.345,2.065c-.6.211.026,1.635-.691,1.724-.389,1.676-2.306,1.823-2.755,3.443a9.667,9.667,0,0,0-2.756,3.445c-2.151,1.979-3.8,4.469-5.856,6.545-1.757-.035-2.014,1.433-3.441,1.726a7.365,7.365,0,0,1-4.825-3.447,31.26,31.26,0,0,1-3.446-4.824c-1.422.185-2.71.508-4.132.689-.233,3.68-1.346,6.7-.693,10.334-.892,1.177-1.382,2.749-2.754,3.445h-5.512c-1.7.364-2.813,1.319-4.478,1.722-.667.027-1.323.043-1.962.043C602.041,631,598.759,630.442,596.82,628.544Zm15.2-6.4a12.731,12.731,0,0,0,2.367.2c-.056-3.5,1.066-5.825.689-9.645.766-.725.95-2.035,2.065-2.409,2.863-1.046,6.488-1.325,9.3-2.412a6.868,6.868,0,0,0,2.413,1.035c1.617,1.939,2.445,4.67,4.477,6.2.293-1.548,1.625-2.051,2.066-3.445,2.007-1.441,3.267-3.625,5.513-4.823a3.038,3.038,0,0,1,1.027,0c.643.067,1.288.134,1.381-.348a57.9,57.9,0,0,1-5.511-6.888,12.849,12.849,0,0,1-4.824-7.237c1.1-2.344.924-5.966,4.135-6.2.856-.05,1.065.542,1.726.689.366.321.1,1.271,1.03,1.035a26.608,26.608,0,0,1,6.3-.348c1.134.021,2.269.041,3.344,0,1.514-2.28.967-6.611,1.721-9.646-.167-1.993.25-4.886,0-5.854a25.851,25.851,0,0,0-4.981.178c-2.99.294-5.927.589-7.764-.87-.315.6-1.075.761-2.065.692-2.762-.995-2.824-6.249-2.069-9.648,4.283-.54,4.283-5.361,7.925-6.547-.6-2.273-2.491-3.249-3.444-5.164-1.245-.6-2.016-1.663-3.1-2.414-1.276-.442-1.276-2.166-3.1-2.067a45.046,45.046,0,0,1-4.135,3.445c-2.032.722-2.955,2.559-5.512,2.755-1.375,0-1.5-1.257-2.415-1.719a2.9,2.9,0,0,1-1.458-.187,2.871,2.871,0,0,0-1.642-.157c-1.259.344-.377,2.836-2.409,2.41-1.749-1.011-1.106-4.4-1.722-6.548v-6.887c-2.139-.077-2.985,1.149-4.824,1.378-3.374.045-5.774-.885-8.609-1.378-.429,3.934,1.211,9.939-1.726,11.368a1.7,1.7,0,0,1-1.26-.142,1.789,1.789,0,0,0-.806-.2c-.731.417-1,1.294-2.063,1.377-.385,1.336-.717,2.731-2.416,2.755h-1.033c-2.087-.786-2.365-3.378-3.79-4.824-.983-1.766-2.592-2.922-3.1-5.164-1.456.035-1.97,1.016-2.758,1.719a1230.739,1230.739,0,0,0-4.135,4.137c-.6.775-1.964.791-2.065,2.063,1.952.807,3,2.512,4.822,3.445,1.38,1.376,3.431,2.081,3.79,4.481-.415.736-.419,1.877-1.377,2.065-.262.537-.9.4-1.457.262-.61-.15-1.126-.3-.956.429-.712,1.8,1.423,4.269.343,6.543.32.827,1.383.915,1.035,2.414a3.091,3.091,0,0,1-1.378,1.375,12.253,12.253,0,0,1-4.477,0c-2.177.92-6.361.9-8.955.344v2.069c.516.429.815.058,1.243-.313a1.67,1.67,0,0,1,1.856-.375c1.023.591-.495,2.128.342,2.408.431-1.074,2.379-2.427,3.79-1.376a19.08,19.08,0,0,1-2.069,4.477,8.494,8.494,0,0,1-2.063,4.134,2.762,2.762,0,0,0,1.181-.2,2.652,2.652,0,0,1,1.576-.143c-.082-1.92,1.489-2.186,1.721-3.793,1.826-.927,2.1-3.408,5.163-3.1,1.073,2.967-2,4.3-2.408,6.893a4.082,4.082,0,0,0,1.536-.2,3.863,3.863,0,0,1,1.907-.148.948.948,0,0,0,1.035.686,28.163,28.163,0,0,1,2.412,8.269c.368,1.288-.856.981-.691,2.068a6.4,6.4,0,0,1-.344,2.756c-.677.468-1.966.327-2.755.69-1.632,2.731-4.081,4.646-5.511,7.576.979.63,1.007,2.211,2.064,2.759.888-3.707.863-8.327,4.825-8.961.344.462.929.68,1.035,1.382.25.939-.687.693-.691,1.377-.479.21-.051,1.324-.688,1.377-.167,2.359-.932,4.117-.69,6.889-.182.966-.5,1.794-.687,2.759.9.354,1.16,1.363,2.065,1.72.531-1.307,2.227-1.448,2.758-2.757-.971-.064-1.469-.6-1.381-1.723a30.524,30.524,0,0,0,1.381-5.167c1.256-.92.94-3.424,2.754-3.79.578,3.375-1.627,6.845-2.065,10.334,2.9-1.805,5.037-4.378,7.577-6.544a7.4,7.4,0,0,1,1.035-3.79c.1-1.507.6-2.611,2.408-2.409,1.111,2.138-.863,3.876-.686,6.2,2.493.491,4.528,1.446,5.167,3.79-.342,2.119-.059,2.587.344,4.477,1.273.243.595-1.472,1.377-1.723a5.688,5.688,0,0,1,.692-2.412c.95-1,.36-3.541,2.754-3.1.486,3.733-1.6,7.79-1.724,12.058-.706.092-.08,1.524-1.03,1.377a2.23,2.23,0,0,0-.347,1.724h4.135c.841-2.375.856-5.576,2.067-7.582-.031-1.639.64-2.57,1.031-3.785.3-1.2.634-2.355,2.068-2.415.892,1.068-.1,2.45,0,3.79-.592.79-.325,2.431-1.032,3.1a30.927,30.927,0,0,1-1.72,6.89,8.752,8.752,0,0,1,1.029-.061A13.59,13.59,0,0,1,612.018,622.144Zm-27.258-9.79c-.5.215.032.419,0,0Zm-17.57-27.56c.094.1.521-.163.344-.341a.084.084,0,0,0-.06-.02C567.327,584.433,567.041,584.643,567.19,584.794Zm32.382,13.438a46.829,46.829,0,0,1-6.2-5.169,22.887,22.887,0,0,0-2.412-3.443c-.769-1.071-.981-2.691-1.722-3.79a25.141,25.141,0,0,1,2.41-13.778c.932-.45,1.224-1.533,2.757-1.381a3.1,3.1,0,0,1,2.069-2.063c-.038-.475.462-.413.96-.351a1.862,1.862,0,0,0,.759,0,1.753,1.753,0,0,1,1.033-1.031c.365-1.015,1.561-1.2,2.413-1.725h.688c-.063-.291.134-.323.347-.345h4.478c2.328.428,4.941.571,6.889,1.377,2.237.4,3.592,1.689,5.512,2.416.3.5.513,1.092,1.377,1.031.726,1.685,2.134,2.687,3.1,4.134a12.621,12.621,0,0,0,1.377,3.1c.559,2.771.284,6.376.345,9.646A23.72,23.72,0,0,1,623.34,591c-.663,1.4-1.908,2.222-2.757,3.446a47,47,0,0,1-9.987,4.821,2.233,2.233,0,0,0-1.72.346A37.289,37.289,0,0,1,599.572,598.232Zm-.346-24.8a7.084,7.084,0,0,0-2.407,1.378,38.81,38.81,0,0,0,0,11.714c1.048,2.507,3.2,3.917,5.162,5.513a30.818,30.818,0,0,0,10.335,1.031c4.462-2.429,7.807-5.974,7.236-13.433-.643-.5-.407-1.892-1.724-1.724-.121-1.141-1.031-1.493-1.723-2.066-.512-1.9-2.573-2.249-3.79-3.445a29.4,29.4,0,0,1-3.763-.217,21.278,21.278,0,0,0-4.85-.126,8.694,8.694,0,0,0-3.784,1.375c-.044.052-.216.031-.381.012a2.17,2.17,0,0,0-.235-.021A.228.228,0,0,0,599.226,573.427Z" transform="translate(-559.21 -531)"/> </g>
<g id="SVGRepo_iconCarrier"> <path id="gears2" d="M596.82,628.544a32.171,32.171,0,0,1-.693-5.506c.179-1.675-1.464-1.524-1.378-3.1v-3.792c.365-.359.71-2.458,0-2.753-1.853-1.238-2.577,1.211-3.789,1.722-1,.953-2.161,1.742-3.1,2.757-2.425,1.592-4.337,3.7-7.233,4.823-3.81-.9-5.282-4.462-8.268-6.548-1.927-2.894-4.854-4.789-5.855-8.608-.017-1.166.8-1.495,1.38-2.068.573-.458.535-1.533,1.033-2.068,3-2.858,6.174-5.537,8.612-8.955.234-2.074-1.023-2.651-.691-4.823-4.768.517-9.032,1.531-14.467,1.377a21.915,21.915,0,0,1-2.757-8.957v-6.2c-.325-1.609-.714-4.667,0-6.2,1.607-1.8,4.352-.8,6.889-.687,1.3.058,2.65.031,3.978.005,1.234-.025,2.452-.049,3.6-.005.787-1.166.7-3.2,1.375-4.478-2.216-4.79-6.781-7.229-8.266-12.747-.337-1.715,1.394-1.364,1.724-2.413.082-1.3,1.3-1.458,1.374-2.754,2.272-1.75,3.935-4.109,6.2-5.856.712-1.245,2.045-1.859,2.757-3.1,1.5-.455,1.668-2.24,3.79-2.07,1.894-.059,2.035,1.639,2.757,2.757.747,1.085.936,2.738,2.064,3.446.847,2.829,3.164,4.188,4.135,6.891,1.45-.392,2.044-1.633,3.446-2.068.415-4.868-1.1-11.663,1.381-14.472,1.228-.77,3.275-.721,5.323-.673a14.216,14.216,0,0,0,4.66-.357h7.582c2.576-.165,4.873-.047,5.856,1.377a9.742,9.742,0,0,1-1.377,5.17c-.008,2.686-.915,6.13,0,8.608a7.374,7.374,0,0,0,3.79,1.035c1.534-.415,2.1-1.8,2.754-3.1,1.187-.652,1.753-1.922,2.413-3.1,1.854-.9,2.608-2.9,4.823-3.443,2.291,0,2.588,2,4.134,2.753,3.044,3.614,6.845,6.476,9.646,10.337.74.29-.133,2.2.686,2.41.306.726,1.049,1.019,1.036,2.066-.356,1.943-2.245,2.352-2.069,4.826a15.789,15.789,0,0,0-3.1,3.1c-.819,1.13-1.921,1.979-2.413,3.441,5.171-.156,11.12-1.219,16.195-.338,1.59,2.062.523,4.714,1.033,7.919-.4,5.225-.795,10.461-1.377,15.5.092,1.359-1.472,1.052-1.38,2.412-.528.734-1.244,1.282-1.722,2.065a29.091,29.091,0,0,1-5.727.064,48.589,48.589,0,0,0-5.3-.064c-.822.1.383.931.686,1.035-.248.939.688.694.691,1.378.995.5,1.327,1.655,2.065,2.41,1.35,1.639,3.081,2.893,3.791,5.169a2.941,2.941,0,0,1-.345,2.065c-.6.211.026,1.635-.691,1.724-.389,1.676-2.306,1.823-2.755,3.443a9.667,9.667,0,0,0-2.756,3.445c-2.151,1.979-3.8,4.469-5.856,6.545-1.757-.035-2.014,1.433-3.441,1.726a7.365,7.365,0,0,1-4.825-3.447,31.26,31.26,0,0,1-3.446-4.824c-1.422.185-2.71.508-4.132.689-.233,3.68-1.346,6.7-.693,10.334-.892,1.177-1.382,2.749-2.754,3.445h-5.512c-1.7.364-2.813,1.319-4.478,1.722-.667.027-1.323.043-1.962.043C602.041,631,598.759,630.442,596.82,628.544Zm15.2-6.4a12.731,12.731,0,0,0,2.367.2c-.056-3.5,1.066-5.825.689-9.645.766-.725.95-2.035,2.065-2.409,2.863-1.046,6.488-1.325,9.3-2.412a6.868,6.868,0,0,0,2.413,1.035c1.617,1.939,2.445,4.67,4.477,6.2.293-1.548,1.625-2.051,2.066-3.445,2.007-1.441,3.267-3.625,5.513-4.823a3.038,3.038,0,0,1,1.027,0c.643.067,1.288.134,1.381-.348a57.9,57.9,0,0,1-5.511-6.888,12.849,12.849,0,0,1-4.824-7.237c1.1-2.344.924-5.966,4.135-6.2.856-.05,1.065.542,1.726.689.366.321.1,1.271,1.03,1.035a26.608,26.608,0,0,1,6.3-.348c1.134.021,2.269.041,3.344,0,1.514-2.28.967-6.611,1.721-9.646-.167-1.993.25-4.886,0-5.854a25.851,25.851,0,0,0-4.981.178c-2.99.294-5.927.589-7.764-.87-.315.6-1.075.761-2.065.692-2.762-.995-2.824-6.249-2.069-9.648,4.283-.54,4.283-5.361,7.925-6.547-.6-2.273-2.491-3.249-3.444-5.164-1.245-.6-2.016-1.663-3.1-2.414-1.276-.442-1.276-2.166-3.1-2.067a45.046,45.046,0,0,1-4.135,3.445c-2.032.722-2.955,2.559-5.512,2.755-1.375,0-1.5-1.257-2.415-1.719a2.9,2.9,0,0,1-1.458-.187,2.871,2.871,0,0,0-1.642-.157c-1.259.344-.377,2.836-2.409,2.41-1.749-1.011-1.106-4.4-1.722-6.548v-6.887c-2.139-.077-2.985,1.149-4.824,1.378-3.374.045-5.774-.885-8.609-1.378-.429,3.934,1.211,9.939-1.726,11.368a1.7,1.7,0,0,1-1.26-.142,1.789,1.789,0,0,0-.806-.2c-.731.417-1,1.294-2.063,1.377-.385,1.336-.717,2.731-2.416,2.755h-1.033c-2.087-.786-2.365-3.378-3.79-4.824-.983-1.766-2.592-2.922-3.1-5.164-1.456.035-1.97,1.016-2.758,1.719a1230.739,1230.739,0,0,0-4.135,4.137c-.6.775-1.964.791-2.065,2.063,1.952.807,3,2.512,4.822,3.445,1.38,1.376,3.431,2.081,3.79,4.481-.415.736-.419,1.877-1.377,2.065-.262.537-.9.4-1.457.262-.61-.15-1.126-.3-.956.429-.712,1.8,1.423,4.269.343,6.543.32.827,1.383.915,1.035,2.414a3.091,3.091,0,0,1-1.378,1.375,12.253,12.253,0,0,1-4.477,0c-2.177.92-6.361.9-8.955.344v2.069c.516.429.815.058,1.243-.313a1.67,1.67,0,0,1,1.856-.375c1.023.591-.495,2.128.342,2.408.431-1.074,2.379-2.427,3.79-1.376a19.08,19.08,0,0,1-2.069,4.477,8.494,8.494,0,0,1-2.063,4.134,2.762,2.762,0,0,0,1.181-.2,2.652,2.652,0,0,1,1.576-.143c-.082-1.92,1.489-2.186,1.721-3.793,1.826-.927,2.1-3.408,5.163-3.1,1.073,2.967-2,4.3-2.408,6.893a4.082,4.082,0,0,0,1.536-.2,3.863,3.863,0,0,1,1.907-.148.948.948,0,0,0,1.035.686,28.163,28.163,0,0,1,2.412,8.269c.368,1.288-.856.981-.691,2.068a6.4,6.4,0,0,1-.344,2.756c-.677.468-1.966.327-2.755.69-1.632,2.731-4.081,4.646-5.511,7.576.979.63,1.007,2.211,2.064,2.759.888-3.707.863-8.327,4.825-8.961.344.462.929.68,1.035,1.382.25.939-.687.693-.691,1.377-.479.21-.051,1.324-.688,1.377-.167,2.359-.932,4.117-.69,6.889-.182.966-.5,1.794-.687,2.759.9.354,1.16,1.363,2.065,1.72.531-1.307,2.227-1.448,2.758-2.757-.971-.064-1.469-.6-1.381-1.723a30.524,30.524,0,0,0,1.381-5.167c1.256-.92.94-3.424,2.754-3.79.578,3.375-1.627,6.845-2.065,10.334,2.9-1.805,5.037-4.378,7.577-6.544a7.4,7.4,0,0,1,1.035-3.79c.1-1.507.6-2.611,2.408-2.409,1.111,2.138-.863,3.876-.686,6.2,2.493.491,4.528,1.446,5.167,3.79-.342,2.119-.059,2.587.344,4.477,1.273.243.595-1.472,1.377-1.723a5.688,5.688,0,0,1,.692-2.412c.95-1,.36-3.541,2.754-3.1.486,3.733-1.6,7.79-1.724,12.058-.706.092-.08,1.524-1.03,1.377a2.23,2.23,0,0,0-.347,1.724h4.135c.841-2.375.856-5.576,2.067-7.582-.031-1.639.64-2.57,1.031-3.785.3-1.2.634-2.355,2.068-2.415.892,1.068-.1,2.45,0,3.79-.592.79-.325,2.431-1.032,3.1a30.927,30.927,0,0,1-1.72,6.89,8.752,8.752,0,0,1,1.029-.061A13.59,13.59,0,0,1,612.018,622.144Zm-27.258-9.79c-.5.215.032.419,0,0Zm-17.57-27.56c.094.1.521-.163.344-.341a.084.084,0,0,0-.06-.02C567.327,584.433,567.041,584.643,567.19,584.794Zm32.382,13.438a46.829,46.829,0,0,1-6.2-5.169,22.887,22.887,0,0,0-2.412-3.443c-.769-1.071-.981-2.691-1.722-3.79a25.141,25.141,0,0,1,2.41-13.778c.932-.45,1.224-1.533,2.757-1.381a3.1,3.1,0,0,1,2.069-2.063c-.038-.475.462-.413.96-.351a1.862,1.862,0,0,0,.759,0,1.753,1.753,0,0,1,1.033-1.031c.365-1.015,1.561-1.2,2.413-1.725h.688c-.063-.291.134-.323.347-.345h4.478c2.328.428,4.941.571,6.889,1.377,2.237.4,3.592,1.689,5.512,2.416.3.5.513,1.092,1.377,1.031.726,1.685,2.134,2.687,3.1,4.134a12.621,12.621,0,0,0,1.377,3.1c.559,2.771.284,6.376.345,9.646A23.72,23.72,0,0,1,623.34,591c-.663,1.4-1.908,2.222-2.757,3.446a47,47,0,0,1-9.987,4.821,2.233,2.233,0,0,0-1.72.346A37.289,37.289,0,0,1,599.572,598.232Zm-.346-24.8a7.084,7.084,0,0,0-2.407,1.378,38.81,38.81,0,0,0,0,11.714c1.048,2.507,3.2,3.917,5.162,5.513a30.818,30.818,0,0,0,10.335,1.031c4.462-2.429,7.807-5.974,7.236-13.433-.643-.5-.407-1.892-1.724-1.724-.121-1.141-1.031-1.493-1.723-2.066-.512-1.9-2.573-2.249-3.79-3.445a29.4,29.4,0,0,1-3.763-.217,21.278,21.278,0,0,0-4.85-.126,8.694,8.694,0,0,0-3.784,1.375c-.044.052-.216.031-.381.012a2.17,2.17,0,0,0-.235-.021A.228.228,0,0,0,599.226,573.427Z" transform="translate(-559.21 -531)"/> </g>
</svg>