<?xml version="1.0" encoding="UTF-8"?>
<!-- Generated by Pixelmator Pro 3.6.17 -->
<svg width="800" height="800" viewBox="0 0 800 800" xmlns="http://www.w3.org/2000/svg">
    <g id="SVGRepobgCarrier"/>
    <g id="SVGRepotracerCarrier"/>
    <g id="SVGRepoiconCarrier">
        <path id="paper-plane" fill="#65666c" fill-rule="evenodd" stroke="none" d="M 772.056396 102.662964 C 774.428284 114.049133 779.637878 122.583435 778.935486 137.029968 C 773.746704 138.727051 778.024231 149.876709 776.647095 155.329773 C 773.10675 158.682251 774.629883 167.077515 774.365662 173.65741 C 769.190857 175.375488 773.461426 186.518005 772.056396 191.984985 C 766.631165 193.410828 772.404114 206.076782 767.472839 207.982544 C 768.307434 221.782288 762.082397 228.536011 762.916992 242.335693 C 757.916077 251.106445 757.150879 264.07843 753.735718 274.393433 C 751.843811 285.466492 747.246399 293.868713 746.870728 306.458099 C 741.160339 314.498657 742.697388 329.786743 737.717224 338.522797 C 738.009521 351.779938 733.384094 360.154297 733.119812 372.868896 C 726.059937 419.971222 718.402039 466.545105 707.941101 510.274017 C 700.651672 556.409668 693.932678 603.115601 673.58783 636.223694 C 669.630188 644.013794 675.340698 649.647705 673.58783 661.409424 C 669.247681 666.229553 660.421326 666.549438 657.548584 672.858093 C 652.088684 675.765503 649.125488 681.204529 639.228088 679.729919 C 624.537903 681.462036 622.680786 670.333252 614.06311 665.986084 C 610.084656 657.750854 601.021606 654.585999 595.728394 647.672363 C 580.426514 640.842163 567.830139 631.292175 552.222107 624.768005 C 537.344116 617.056885 522.051147 610.174438 506.413452 604.151855 C 477.423065 588.891602 444.509613 577.526489 414.823883 562.940857 C 402.839478 566.230713 399.72345 578.368042 389.638123 583.542969 C 382.418182 590.853149 377.681519 600.61853 369.022003 606.440308 C 355.490814 621.888916 340.952454 636.424927 325.50174 649.953796 C 321.884979 660.073853 314.122498 666.041687 309.504028 675.139526 C 305.372559 684.00769 297.088745 688.702576 293.450928 698.043884 C 278.364502 708.901184 273.008881 729.510315 243.086456 725.524841 C 237.313293 719.084106 226.831497 717.352234 229.342361 702.634277 L 229.342361 668.274475 C 227.84697 643.930359 233.307022 626.430237 231.623764 601.856689 C 233.341843 557.765991 237.445541 516.07489 240.805038 473.625702 C 242.126602 464.660095 231.38031 467.783142 229.342361 462.170044 C 223.597214 460.285126 220.369949 455.910156 213.296066 455.304993 C 205.992889 448.106171 193.125244 446.485504 185.842896 439.307495 C 162.089935 433.263184 145.612503 419.978241 121.720512 414.114746 C 102.794632 403.250336 77.414238 398.86145 59.879539 386.633667 C 40.404114 376.332703 14.376732 372.604523 0.354577 356.871307 C -1.731977 344.128906 5.696411 340.873718 11.803245 336.248383 C 15.848783 328.743683 23.889341 324.276794 32.398365 324.80661 C 38.247936 319.986389 50.204334 321.231445 55.351528 315.64624 C 63.281708 314.530273 70.99559 312.213104 78.228058 308.7742 C 112.581062 301.90918 138.650055 286.739319 174.40123 281.293274 C 179.506607 275.728821 191.463013 276.960022 197.305573 272.132874 C 207.210022 272.132874 211.863266 266.818848 222.505112 267.556152 C 235.303162 259.745178 255.891479 259.717346 268.292999 251.558533 C 284.746643 248.595886 300.861725 243.991455 316.397125 237.814575 C 324.91272 236.012634 333.317291 233.72052 341.568848 230.949524 C 348.781586 228.243958 358.867096 228.376038 364.480194 224.077637 C 398.32547 216.704712 427.336639 204.48407 458.378967 194.315125 C 491.020905 185.739014 516.978638 170.492676 549.968506 162.24353 C 563.441101 155.121094 579.946533 151.003418 593.474976 143.929688 C 610.418335 140.271118 622.687805 131.938477 639.269653 127.932129 C 653.04303 120.211609 667.641663 114.065979 682.789917 109.611572 C 687.519775 103.650635 697.598267 103.038574 703.385254 98.155823 C 710.583923 95.429321 715.515442 90.421387 724.00116 88.995483 C 727.708313 89.642334 727.938049 86.832336 730.887024 86.707214 C 743.434753 93.127014 763.647156 92.021057 772.056396 102.662964 Z M 723.959351 187.401367 C 718.119568 193.045898 712.767944 199.174683 707.961914 205.722107 C 703.66333 210.45874 689.829041 222.846497 689.655151 226.338135 C 689.404663 230.76178 684.473145 231.346008 682.769104 233.203186 C 676.105713 240.49939 672.634949 247.072388 666.771667 253.805176 C 663.606812 257.456848 658.779663 258.089783 657.60437 262.972534 C 634.080872 287.52533 613.715149 315.256744 588.925964 338.550568 C 567.684021 365.405701 542.150635 387.934448 522.508301 416.451782 C 510.941467 428.533417 502.497406 443.7659 490.436554 455.402405 C 482.903931 472.325073 463.915436 477.729401 458.392761 496.627472 C 462.955597 511.129547 469.973663 523.204285 474.390472 537.84552 C 487.44574 540.857178 496.272339 548.035278 508.750458 551.589478 C 515.705933 548.61261 514.126892 537.108215 527.077942 540.133789 C 533.908203 544.752258 532.948364 557.160889 536.224426 565.31958 C 555.198914 570.021545 567.343201 581.539795 586.609924 585.935608 C 593.463074 591.712402 601.198425 596.352661 609.521057 599.679688 C 617.589417 603.852783 622.799072 610.808289 632.425354 613.40979 C 641.143311 585.128601 646.512512 555.922363 648.423096 526.389893 C 653.649475 520.408997 657.547058 513.386841 659.857727 505.787842 C 672.52887 452.894409 682.474487 399.385132 689.655151 345.471252 C 697.598267 289.319824 715.118958 242.718262 726.282593 189.759277 C 726.449402 188.750793 725.545166 186.372009 723.973389 187.401367 Z M 653.013733 201.138428 C 637.78125 204.984802 630.860596 217.136047 616.365356 221.747437 C 607.184021 230.900818 593.2453 235.303711 584.293701 244.651794 C 570.966919 249.652771 561.340515 258.319275 549.947449 265.260864 C 545.310791 269.967651 539.899353 273.84259 533.950012 276.716492 C 527.954407 279.874268 526.076477 287.149719 517.952515 288.165192 C 508.366913 297.866089 497.601501 306.325104 485.908539 313.344055 C 476.780121 322.65564 466.802246 331.094513 456.104553 338.550568 C 436.399658 355.473236 416.458313 372.180298 396.586578 388.928986 C 391.063934 391.815582 382.738281 391.871216 378.258881 395.78714 C 362.85257 408.626862 350.089325 424.088928 334.766418 437.019104 C 326.044281 442.047943 315.861359 445.602173 309.573669 453.016693 C 300.698486 457.885468 288.095306 459.026184 282.078705 466.76767 C 272.591553 490.360596 277.78714 518.523193 272.925446 549.196899 L 272.925446 627.098022 C 275.116241 634.811707 265.921143 642.740845 272.925446 647.707153 C 277.515869 640.431641 281.271881 632.279846 286.648529 624.802856 C 287.246704 624.002808 290.912262 623.210022 291.25296 622.514404 C 291.712067 621.429321 290.508759 618.828003 291.25296 617.930786 C 294.869934 613.40979 300.719299 611.371826 304.976044 606.475098 C 308.600006 602.357422 310.658783 596.187988 314.136475 592.745056 C 316.584747 590.345398 320.973724 590.157532 323.296753 588.175171 C 335.253357 577.908936 346.834045 557.800781 359.938141 544.654968 C 371.331207 546.887634 373.584839 539.973877 380.533264 537.782898 C 404.599335 510.656616 418.461456 473.403137 444.690491 448.488678 C 447.410248 438.229309 457.210449 435.057648 460.688171 425.535614 C 469.382507 422.023163 470.314575 410.741333 479.008881 407.221893 C 484.941895 400.189941 488.982971 391.224335 497.336395 386.612885 C 500.981201 378.05069 511.567444 376.430023 513.334106 366.010773 C 564.324524 315.493195 606.001709 255.63446 653.027527 201.117554 C 656.310608 199.740417 652.749268 198.384094 653.006775 201.16626 Z M 533.92218 221.747437 C 520.289551 223.611572 507.992249 230.83136 494.971558 235.498474 C 482.451813 239.977783 468.596497 242.78772 456.020935 246.947144 C 455.248901 247.211426 456.020935 249.110352 453.746521 249.235474 C 450.157562 249.430237 449.69165 250.626526 446.888458 251.523865 C 437.192474 254.618958 428.268677 257.088135 417.098297 260.684204 C 404.321503 263.599548 391.994904 268.220032 380.44986 274.421204 C 385.743103 279.074402 386.619324 288.130493 387.328918 297.325562 C 385.701263 312.474609 388.288788 331.859406 371.331207 331.671631 C 351.278625 328.826904 355.688416 301.533569 355.33374 278.997925 C 346.750641 281.084595 339.141388 284.186768 330.14798 285.876892 L 330.14798 336.248383 C 331.465515 349.837524 335.34549 363.054016 341.582642 375.198914 C 352.315125 371.415222 357.796021 362.39389 366.78241 356.885193 C 374.839294 350.492035 382.490997 343.604492 389.693726 336.262299 C 406.546875 324.111023 421.264618 309.831512 437.756042 297.311646 C 468.046936 270.324402 501.746155 246.801086 533.957031 221.733582 C 537.246948 220.349365 533.671753 219.000061 533.915161 221.747437 Z M 314.073883 386.633667 C 312.745331 381.869232 309.260803 379.219208 307.194824 375.185028 C 300.608063 351.967682 306.874939 323.71463 307.194824 295.023346 C 306.708099 293.249634 305.296112 292.373291 302.625214 292.748901 C 293.47876 298.883575 279.498199 300.13559 268.272217 304.183685 C 267.455627 316.448517 268.234192 328.767456 270.58844 340.832001 C 270.205719 371.735077 268.599091 403.862396 286.585907 416.417084 C 301.324432 411.297791 308.843475 398.958771 323.234131 393.46402 C 323.943726 387.468384 318.448822 387.572723 314.066864 386.633667 Z M 243.128052 313.344055 C 242.613525 311.570343 241.208344 310.693909 238.537643 311.06955 C 227.807907 316.345245 216.144211 319.455658 204.212219 320.222992 C 213.031784 344.97052 212.41983 379.17749 220.209915 404.954376 C 228.925049 408.466919 235.428391 414.170349 245.416473 416.417084 C 236.666519 388.720337 241.500626 344.914917 243.086456 313.344055 Z M 162.980377 331.671631 L 162.980377 372.896698 C 168.99678 384.44281 183.151184 387.864807 195.017166 393.498718 C 194.410721 370.575928 195.179535 347.63739 197.319382 324.80661 C 182.636444 323.91626 176.286133 331.296051 162.938568 331.671631 Z M 112.594864 343.127319 C 107.218422 349.206329 91.499016 344.928833 87.402313 352.287689 C 106.376808 355.445404 119.098206 364.85614 137.780609 368.285156 C 136.445267 356.273132 141.807892 350.952209 140.083054 338.522797 C 128.571548 337.764679 124.029732 343.906311 112.553261 343.127319 Z M 433.200226 519.455322 C 440.218079 520.053467 443.494171 524.421509 449.197723 526.320313 C 449.698425 518.954468 445.156616 516.631348 446.923279 507.999603 C 439.300049 508.813446 436.963013 514.857788 433.158417 519.455322 Z"/>
    </g>
</svg>
