<!DOCTYPE svg PUBLIC "-//W3C//DTD SVG 1.1//EN" "http://www.w3.org/Graphics/SVG/1.1/DTD/svg11.dtd">
<!-- Uploaded to: SVG Repo, www.svgrepo.com, Transformed by: SVG Repo Mixer Tools -->
<svg fill="#65666C" width="800px" height="800px" viewBox="0 -10.03 112 112" xmlns="http://www.w3.org/2000/svg" stroke="#65666C">
<g id="SVGRepo_bgCarrier" stroke-width="0"/>
<g id="SVGRepo_tracerCarrier" stroke-linecap="round" stroke-linejoin="round" stroke="#4a4c51" stroke-width="2.016"> <path id="paper-plane" d="M474.5,187.338c.341,1.637,1.09,2.864.989,4.941-.746.244-.131,1.847-.329,2.631-.509.482-.29,1.689-.328,2.635-.744.247-.13,1.849-.332,2.635-.78.205.05,2.026-.659,2.3.12,1.984-.775,2.955-.655,4.939-.719,1.261-.829,3.126-1.32,4.609-.272,1.592-.933,2.8-.987,4.61-.821,1.156-.6,3.354-1.316,4.61.042,1.906-.623,3.11-.661,4.938-1.015,6.772-2.116,13.468-3.62,19.755-1.048,6.633-2.014,13.348-4.939,18.108-.569,1.12.252,1.93,0,3.621-.624.693-1.893.739-2.306,1.646-.785.418-1.211,1.2-2.634.988-2.112.249-2.379-1.351-3.618-1.976-.572-1.184-1.875-1.639-2.636-2.633-2.2-.982-4.011-2.355-6.255-3.293a65.362,65.362,0,0,0-6.586-2.964c-4.168-2.194-8.9-3.828-13.168-5.925-1.723.473-2.171,2.218-3.621,2.962-1.038,1.051-1.719,2.455-2.964,3.292a66.934,66.934,0,0,1-6.257,6.256c-.52,1.455-1.636,2.313-2.3,3.621-.594,1.275-1.785,1.95-2.308,3.293-2.169,1.561-2.939,4.524-7.241,3.951-.83-.926-2.337-1.175-1.976-3.291v-4.94c-.215-3.5.57-6.016.328-9.549.247-6.339.837-12.333,1.32-18.436.19-1.289-1.355-.84-1.648-1.647-.826-.271-1.29-.9-2.307-.987-1.05-1.035-2.9-1.268-3.947-2.3-3.415-.869-5.784-2.779-9.219-3.622-2.721-1.562-6.37-2.193-8.891-3.951-2.8-1.481-6.542-2.017-8.558-4.279-.3-1.832.768-2.3,1.646-2.965a3.142,3.142,0,0,1,2.961-1.645c.841-.693,2.56-.514,3.3-1.317a11.339,11.339,0,0,0,3.289-.988c4.939-.987,8.687-3.168,13.827-3.951.734-.8,2.453-.623,3.293-1.317,1.424,0,2.093-.764,3.623-.658,1.84-1.123,4.8-1.127,6.583-2.3a35.973,35.973,0,0,0,6.916-1.976,32.507,32.507,0,0,0,3.619-.987c1.037-.389,2.487-.37,3.294-.988,4.866-1.06,9.037-2.817,13.5-4.279,4.693-1.233,8.425-3.425,13.168-4.611,1.937-1.024,4.31-1.616,6.255-2.633,2.436-.526,4.2-1.724,6.584-2.3a30.249,30.249,0,0,1,6.257-2.634c.68-.857,2.129-.945,2.961-1.647,1.035-.392,1.744-1.112,2.964-1.317.533.093.566-.311.99-.329C470.385,185.967,473.291,185.808,474.5,187.338Zm-6.915,12.183a20.691,20.691,0,0,0-2.3,2.634c-.618.681-2.607,2.462-2.632,2.964-.036.636-.745.72-.99.987-.958,1.049-1.457,1.994-2.3,2.962-.455.525-1.149.616-1.318,1.318-3.382,3.53-6.31,7.517-9.874,10.866-3.054,3.861-6.725,7.1-9.549,11.2-1.663,1.737-2.877,3.927-4.611,5.6-1.083,2.433-3.813,3.21-4.607,5.927.656,2.085,1.665,3.821,2.3,5.926,1.877.433,3.146,1.465,4.94,1.976,1-.428.773-2.082,2.635-1.647.982.664.844,2.448,1.315,3.621,2.728.676,4.474,2.332,7.244,2.964a12.052,12.052,0,0,0,3.294,1.976c1.16.6,1.909,1.6,3.293,1.974a54.392,54.392,0,0,0,2.3-12.511,8.069,8.069,0,0,0,1.644-2.962,228.328,228.328,0,0,0,4.284-23.049c1.142-8.073,3.661-14.773,5.266-22.387C467.943,199.715,467.813,199.373,467.587,199.521Zm-10.2,1.975c-2.19.553-3.185,2.3-5.269,2.963-1.32,1.316-3.324,1.949-4.611,3.293-1.916.719-3.3,1.965-4.938,2.963a8.291,8.291,0,0,1-2.3,1.647c-.862.454-1.132,1.5-2.3,1.646a23.426,23.426,0,0,1-4.607,3.62,30.113,30.113,0,0,1-4.285,3.624c-2.833,2.433-5.7,4.835-8.557,7.243-.794.415-1.991.423-2.635.986-2.215,1.846-4.05,4.069-6.253,5.928-1.254.723-2.718,1.234-3.622,2.3-1.276.7-3.088.864-3.953,1.977-1.364,3.392-.617,7.441-1.316,11.851v11.2c.315,1.109-1.007,2.249,0,2.963.66-1.046,1.2-2.218,1.973-3.293.086-.115.613-.229.662-.329.066-.156-.107-.53,0-.659.52-.65,1.361-.943,1.973-1.647.521-.592.817-1.479,1.317-1.974.352-.345.983-.372,1.317-.657,1.719-1.476,3.384-4.367,5.268-6.257,1.638.321,1.962-.673,2.961-.988,3.46-3.9,5.453-9.256,9.224-12.838.391-1.475,1.8-1.931,2.3-3.3,1.25-.505,1.384-2.127,2.634-2.633.853-1.011,1.434-2.3,2.635-2.963.524-1.231,2.046-1.464,2.3-2.962,7.331-7.263,13.323-15.869,20.084-23.707C457.859,201.295,457.347,201.1,457.384,201.5Zm-17.122,2.963c-1.96.268-3.728,1.306-5.6,1.977-1.8.644-3.792,1.048-5.6,1.646-.111.038,0,.311-.327.329-.516.028-.583.2-.986.329-1.394.445-2.677.8-4.283,1.317a21.015,21.015,0,0,0-5.269,1.975c.761.669.887,1.971.989,3.293-.234,2.178.138,4.965-2.3,4.938-2.883-.409-2.249-4.333-2.3-7.573-1.234.3-2.328.746-3.621.989v7.242a15.541,15.541,0,0,0,1.644,5.6c1.543-.544,2.331-1.841,3.623-2.633a35.7,35.7,0,0,0,3.294-2.965c2.423-1.747,4.539-3.8,6.91-5.6,4.355-3.88,9.2-7.262,13.831-10.866C440.741,204.258,440.227,204.064,440.262,204.459Zm-31.608,23.706c-.191-.685-.692-1.066-.989-1.646-.947-3.338-.046-7.4,0-11.525-.07-.255-.273-.381-.657-.327-1.315.882-3.325,1.062-4.939,1.644a20.427,20.427,0,0,0,.333,5.269c-.055,4.443-.286,9.062,2.3,10.867,2.119-.736,3.2-2.51,5.269-3.3C410.074,228.285,409.284,228.3,408.654,228.165Zm-10.2-10.537c-.074-.255-.276-.381-.66-.327a13.088,13.088,0,0,1-4.935,1.316c1.268,3.558,1.18,8.476,2.3,12.182,1.253.505,2.188,1.325,3.624,1.648C397.526,228.465,398.221,222.167,398.449,217.628Zm-11.523,2.635v5.927c.865,1.66,2.9,2.152,4.606,2.962a82.457,82.457,0,0,1,.331-9.876C389.758,219.148,388.845,220.209,386.926,220.263Zm-7.244,1.647c-.773.874-3.033.259-3.622,1.317,2.728.454,4.557,1.807,7.243,2.3-.192-1.727.579-2.492.331-4.279C381.985,221.139,381.332,222.022,379.682,221.91Zm46.094,25.351c1.009.086,1.48.714,2.3.987.072-1.059-.581-1.393-.327-2.634C426.659,245.731,426.323,246.6,425.776,247.261Z" transform="translate(-363.5 -185.035)" fill-rule="evenodd"/> </g>
<g id="SVGRepo_iconCarrier"> <path id="paper-plane" d="M474.5,187.338c.341,1.637,1.09,2.864.989,4.941-.746.244-.131,1.847-.329,2.631-.509.482-.29,1.689-.328,2.635-.744.247-.13,1.849-.332,2.635-.78.205.05,2.026-.659,2.3.12,1.984-.775,2.955-.655,4.939-.719,1.261-.829,3.126-1.32,4.609-.272,1.592-.933,2.8-.987,4.61-.821,1.156-.6,3.354-1.316,4.61.042,1.906-.623,3.11-.661,4.938-1.015,6.772-2.116,13.468-3.62,19.755-1.048,6.633-2.014,13.348-4.939,18.108-.569,1.12.252,1.93,0,3.621-.624.693-1.893.739-2.306,1.646-.785.418-1.211,1.2-2.634.988-2.112.249-2.379-1.351-3.618-1.976-.572-1.184-1.875-1.639-2.636-2.633-2.2-.982-4.011-2.355-6.255-3.293a65.362,65.362,0,0,0-6.586-2.964c-4.168-2.194-8.9-3.828-13.168-5.925-1.723.473-2.171,2.218-3.621,2.962-1.038,1.051-1.719,2.455-2.964,3.292a66.934,66.934,0,0,1-6.257,6.256c-.52,1.455-1.636,2.313-2.3,3.621-.594,1.275-1.785,1.95-2.308,3.293-2.169,1.561-2.939,4.524-7.241,3.951-.83-.926-2.337-1.175-1.976-3.291v-4.94c-.215-3.5.57-6.016.328-9.549.247-6.339.837-12.333,1.32-18.436.19-1.289-1.355-.84-1.648-1.647-.826-.271-1.29-.9-2.307-.987-1.05-1.035-2.9-1.268-3.947-2.3-3.415-.869-5.784-2.779-9.219-3.622-2.721-1.562-6.37-2.193-8.891-3.951-2.8-1.481-6.542-2.017-8.558-4.279-.3-1.832.768-2.3,1.646-2.965a3.142,3.142,0,0,1,2.961-1.645c.841-.693,2.56-.514,3.3-1.317a11.339,11.339,0,0,0,3.289-.988c4.939-.987,8.687-3.168,13.827-3.951.734-.8,2.453-.623,3.293-1.317,1.424,0,2.093-.764,3.623-.658,1.84-1.123,4.8-1.127,6.583-2.3a35.973,35.973,0,0,0,6.916-1.976,32.507,32.507,0,0,0,3.619-.987c1.037-.389,2.487-.37,3.294-.988,4.866-1.06,9.037-2.817,13.5-4.279,4.693-1.233,8.425-3.425,13.168-4.611,1.937-1.024,4.31-1.616,6.255-2.633,2.436-.526,4.2-1.724,6.584-2.3a30.249,30.249,0,0,1,6.257-2.634c.68-.857,2.129-.945,2.961-1.647,1.035-.392,1.744-1.112,2.964-1.317.533.093.566-.311.99-.329C470.385,185.967,473.291,185.808,474.5,187.338Zm-6.915,12.183a20.691,20.691,0,0,0-2.3,2.634c-.618.681-2.607,2.462-2.632,2.964-.036.636-.745.72-.99.987-.958,1.049-1.457,1.994-2.3,2.962-.455.525-1.149.616-1.318,1.318-3.382,3.53-6.31,7.517-9.874,10.866-3.054,3.861-6.725,7.1-9.549,11.2-1.663,1.737-2.877,3.927-4.611,5.6-1.083,2.433-3.813,3.21-4.607,5.927.656,2.085,1.665,3.821,2.3,5.926,1.877.433,3.146,1.465,4.94,1.976,1-.428.773-2.082,2.635-1.647.982.664.844,2.448,1.315,3.621,2.728.676,4.474,2.332,7.244,2.964a12.052,12.052,0,0,0,3.294,1.976c1.16.6,1.909,1.6,3.293,1.974a54.392,54.392,0,0,0,2.3-12.511,8.069,8.069,0,0,0,1.644-2.962,228.328,228.328,0,0,0,4.284-23.049c1.142-8.073,3.661-14.773,5.266-22.387C467.943,199.715,467.813,199.373,467.587,199.521Zm-10.2,1.975c-2.19.553-3.185,2.3-5.269,2.963-1.32,1.316-3.324,1.949-4.611,3.293-1.916.719-3.3,1.965-4.938,2.963a8.291,8.291,0,0,1-2.3,1.647c-.862.454-1.132,1.5-2.3,1.646a23.426,23.426,0,0,1-4.607,3.62,30.113,30.113,0,0,1-4.285,3.624c-2.833,2.433-5.7,4.835-8.557,7.243-.794.415-1.991.423-2.635.986-2.215,1.846-4.05,4.069-6.253,5.928-1.254.723-2.718,1.234-3.622,2.3-1.276.7-3.088.864-3.953,1.977-1.364,3.392-.617,7.441-1.316,11.851v11.2c.315,1.109-1.007,2.249,0,2.963.66-1.046,1.2-2.218,1.973-3.293.086-.115.613-.229.662-.329.066-.156-.107-.53,0-.659.52-.65,1.361-.943,1.973-1.647.521-.592.817-1.479,1.317-1.974.352-.345.983-.372,1.317-.657,1.719-1.476,3.384-4.367,5.268-6.257,1.638.321,1.962-.673,2.961-.988,3.46-3.9,5.453-9.256,9.224-12.838.391-1.475,1.8-1.931,2.3-3.3,1.25-.505,1.384-2.127,2.634-2.633.853-1.011,1.434-2.3,2.635-2.963.524-1.231,2.046-1.464,2.3-2.962,7.331-7.263,13.323-15.869,20.084-23.707C457.859,201.295,457.347,201.1,457.384,201.5Zm-17.122,2.963c-1.96.268-3.728,1.306-5.6,1.977-1.8.644-3.792,1.048-5.6,1.646-.111.038,0,.311-.327.329-.516.028-.583.2-.986.329-1.394.445-2.677.8-4.283,1.317a21.015,21.015,0,0,0-5.269,1.975c.761.669.887,1.971.989,3.293-.234,2.178.138,4.965-2.3,4.938-2.883-.409-2.249-4.333-2.3-7.573-1.234.3-2.328.746-3.621.989v7.242a15.541,15.541,0,0,0,1.644,5.6c1.543-.544,2.331-1.841,3.623-2.633a35.7,35.7,0,0,0,3.294-2.965c2.423-1.747,4.539-3.8,6.91-5.6,4.355-3.88,9.2-7.262,13.831-10.866C440.741,204.258,440.227,204.064,440.262,204.459Zm-31.608,23.706c-.191-.685-.692-1.066-.989-1.646-.947-3.338-.046-7.4,0-11.525-.07-.255-.273-.381-.657-.327-1.315.882-3.325,1.062-4.939,1.644a20.427,20.427,0,0,0,.333,5.269c-.055,4.443-.286,9.062,2.3,10.867,2.119-.736,3.2-2.51,5.269-3.3C410.074,228.285,409.284,228.3,408.654,228.165Zm-10.2-10.537c-.074-.255-.276-.381-.66-.327a13.088,13.088,0,0,1-4.935,1.316c1.268,3.558,1.18,8.476,2.3,12.182,1.253.505,2.188,1.325,3.624,1.648C397.526,228.465,398.221,222.167,398.449,217.628Zm-11.523,2.635v5.927c.865,1.66,2.9,2.152,4.606,2.962a82.457,82.457,0,0,1,.331-9.876C389.758,219.148,388.845,220.209,386.926,220.263Zm-7.244,1.647c-.773.874-3.033.259-3.622,1.317,2.728.454,4.557,1.807,7.243,2.3-.192-1.727.579-2.492.331-4.279C381.985,221.139,381.332,222.022,379.682,221.91Zm46.094,25.351c1.009.086,1.48.714,2.3.987.072-1.059-.581-1.393-.327-2.634C426.659,245.731,426.323,246.6,425.776,247.261Z" transform="translate(-363.5 -185.035)" fill-rule="evenodd"/> </g>
</svg>