<?xml version="1.0" encoding="UTF-8"?>
<!-- Generated by Pixelmator Pro 3.6.17 -->
<svg width="54" height="54" viewBox="0 0 54 54" xmlns="http://www.w3.org/2000/svg">
    <linearGradient id="linearGradient1" x1="27" y1="2.4" x2="27" y2="51.396" gradientUnits="userSpaceOnUse">
        <stop offset="1e-05" stop-color="#f1f1f1" stop-opacity="1"/>
        <stop offset="1" stop-color="#bebebe" stop-opacity="1"/>
    </linearGradient>
    <path id="Path" fill="url(#linearGradient1)" stroke="none" d="M 53.666668 27 C 53.666668 41.727592 41.727596 53.666668 27 53.666668 C 12.272406 53.666668 0.333333 41.727592 0.333333 27 C 0.333333 12.272408 12.272406 0.333332 27 0.333332 C 41.727596 0.333332 53.666668 12.272408 53.666668 27 Z"/>
    <linearGradient id="linearGradient2" x1="27" y1="6.574667" x2="27" y2="49.48" gradientUnits="userSpaceOnUse">
        <stop offset="1e-05" stop-color="#b2c5cc" stop-opacity="1"/>
        <stop offset="1" stop-color="#4a676a" stop-opacity="1"/>
    </linearGradient>
    <path id="path1" fill="url(#linearGradient2)" stroke="none" d="M 51 27 C 51 40.254829 40.254833 51 27 51 C 13.745165 51 3 40.254829 3 27 C 3 13.745167 13.745165 3 27 3 C 40.254833 3 51 13.745167 51 27 Z"/>
    <path id="path2" fill="#000000" stroke="none" opacity="0.05" d="M 46.578663 30.496 L 45.185333 30.496 L 41.490665 24.941334 L 43.723999 21.669334 C 43.853333 21.453335 44.035999 21.210667 44.965332 21.213333 L 45.710667 21.213333 C 46.446667 21.213333 47.044003 20.614666 47.044003 19.880001 L 47.044003 18 C 47.044003 17.265331 46.446667 16.666668 45.710667 16.666668 L 39.455997 16.666668 C 39.161331 16.666668 38.889332 16.762669 38.667999 16.925335 C 38.446667 16.762669 38.174667 16.666668 37.880001 16.666668 L 30.858665 16.666668 C 30.122665 16.666668 29.525333 17.265331 29.525333 18 L 29.525333 19.881332 C 29.525333 20.616001 30.122665 21.214664 30.860001 21.214664 L 32.242664 21.210667 C 32.257336 21.209332 32.270664 21.208 32.284 21.208 L 32.645332 21.756001 C 32.470669 21.672001 32.276001 21.625332 32.069332 21.625332 L 23.328001 21.625332 L 23.058668 18.078667 C 23.029333 17.688 22.821333 17.329334 22.489334 17.094666 C 22.401335 17.032001 22.304001 16.98 22.217333 16.948002 C 22.054667 16.880001 21.882668 16.846668 21.706667 16.846668 L 7.666667 16.846668 C 6.973332 16.846668 6.389333 17.388 6.337334 18.078667 L 5.890667 23.950665 C 5.862667 24.32 5.990666 24.688 6.242667 24.959999 C 6.494667 25.230667 6.850666 25.386669 7.22 25.386669 L 8.88 25.386669 C 9.556 25.386669 10.125333 24.881332 10.204 24.208 L 10.466667 21.852001 C 10.466667 21.850666 10.469334 21.675999 10.581333 21.558666 C 10.72 21.413334 11.048 21.326668 11.474667 21.322666 L 11.864 21.322666 L 11.864 30.434668 L 10.053333 30.513334 C 9.338666 30.545334 8.778666 31.130667 8.778666 31.846666 L 8.778666 33.67067 C 8.778666 34.40667 9.377334 35.003998 10.112 35.003998 L 19.304001 35.003998 C 19.480001 35.003998 19.646667 34.970665 19.801332 34.907997 L 19.801332 35.244003 L 19.028 35.244003 C 18.293333 35.244003 17.694666 35.841331 17.694666 36.577332 L 17.694666 38.416 C 17.694666 39.152 18.293333 39.749336 19.028 39.749336 L 30.665333 39.749336 C 30.741333 39.764 30.82 39.770668 30.901333 39.770668 L 32.305332 39.770668 C 32.962666 39.770668 33.515999 39.298668 33.619999 38.650665 L 34.205334 35.047997 L 36.773335 35.047997 C 37.509335 35.047997 38.10667 34.450668 38.10667 33.714668 L 38.10667 31.833334 C 38.10667 31.381332 37.880001 30.980001 37.534664 30.74 L 38.072002 29.953333 L 38.670666 30.856001 C 38.408001 31.1 38.242664 31.446665 38.242664 31.833334 L 38.242664 33.714668 C 38.242664 34.450668 38.84 35.047997 39.576 35.047997 L 46.577332 35.047997 C 47.313335 35.047997 47.910664 34.450668 47.910664 33.714668 L 47.910664 31.833334 C 47.911999 31.094666 47.313335 30.496 46.578663 30.496 Z M 41.932003 19.633335 C 41.926666 19.619999 41.919998 19.605335 41.913334 19.593334 C 41.870667 19.501331 41.821335 19.414669 41.764004 19.333332 L 42.262665 19.333332 C 42.145336 19.425335 42.034668 19.525333 41.932003 19.633335 Z M 25.869333 28.113333 L 25.532 28.113333 L 25.532 25.98 L 26.314667 25.981335 C 26.038666 26.226665 25.865334 26.582668 25.865334 26.98 L 25.869333 28.113333 Z M 27.528 30.364 C 27.577335 30.330666 27.625332 30.293333 27.672001 30.255999 L 27.672001 30.474669 C 27.625332 30.434668 27.577335 30.397333 27.528 30.364 Z M 26.070665 31.954666 L 26.070665 31.954666 L 26.070665 31.954666 C 26.070665 31.954666 26.070665 31.954666 26.070665 31.954666 Z M 25.532 35.241333 L 25.532 32.613335 L 25.864 32.610664 C 25.864 32.638664 25.865334 32.669334 25.865334 32.702667 L 25.865334 33.751999 C 25.865334 34.487999 26.463999 35.085335 27.198666 35.085335 L 29.006664 35.085335 C 29.058666 35.085335 29.110668 35.082664 29.161335 35.075996 C 28.945332 35.164001 28.642666 35.226669 28.220001 35.226669 L 25.532 35.241333 Z M 33.959999 27.972 L 33.403999 22.957333 C 33.403999 22.937332 33.403999 22.917332 33.402668 22.898666 L 35.375999 25.880001 L 33.959999 27.972 Z M 34.459999 32.37867 L 33.925335 32.37867 C 34.051998 32.277336 34.173332 32.166664 34.290668 32.046669 C 34.296001 32.059998 34.301334 32.071999 34.306667 32.084 C 34.348 32.188004 34.399998 32.285332 34.459999 32.37867 Z M 31.779999 30.496 L 30.518665 30.496 C 30.458668 30.496 30.398666 30.5 30.34 30.508001 L 30.34 29.963999 C 30.533333 30.069334 30.753334 30.129333 30.985332 30.129333 L 32.441334 30.129333 C 32.163998 30.434668 32.004002 30.468 31.779999 30.496 Z M 31.195999 36.934669 L 31.169334 37.099998 L 31.106667 37.099998 C 31.073334 37.09333 31.040001 37.089333 31.006664 37.085335 C 31.072002 37.038666 31.135998 36.989334 31.195999 36.934669 Z M 17.596001 21.321331 L 17.910667 21.321331 C 18.346666 21.325333 18.676001 21.410667 18.816 21.557331 C 18.838667 21.579998 18.856001 21.606667 18.870667 21.633335 C 18.209333 21.712002 17.695999 22.276001 17.695999 22.957333 L 17.695999 24.646667 C 17.695999 25.381332 18.294668 25.98 19.029333 25.98 L 19.802666 25.98 L 19.802666 30.605333 C 19.665335 30.550667 19.517334 30.518667 19.361334 30.510666 L 17.596001 30.435999 L 17.596001 21.321331 Z"/>
    <path id="path3" fill="#000000" stroke="none" opacity="0.07" d="M 32.305332 39.099998 L 30.901333 39.099998 C 30.845333 39.099998 30.789333 39.09333 30.736 39.078667 L 19.029333 39.078667 C 18.661333 39.078667 18.362665 38.779999 18.362665 38.411995 L 18.362665 36.573334 C 18.362665 36.20533 18.661333 35.90667 19.029333 35.90667 L 20.469332 35.90667 L 20.469332 25.312 L 19.029333 25.312 C 18.661333 25.312 18.362665 25.013332 18.362665 24.645332 L 18.362665 22.955997 C 18.362665 22.588001 18.661333 22.289333 19.029333 22.289333 L 19.638666 22.289333 L 19.601334 21.98 C 19.598665 21.848 19.610666 21.422665 19.298668 21.094666 C 19.024 20.806667 18.558668 20.657333 17.917334 20.652 L 16.930666 20.652 L 16.930666 31.073334 L 19.334665 31.174667 C 19.691999 31.190666 19.973333 31.484001 19.973333 31.841333 L 19.973333 33.665337 C 19.973333 34.033333 19.674667 34.332001 19.306665 34.332001 L 10.114667 34.332001 C 9.746667 34.332001 9.448001 34.033333 9.448001 33.665337 L 9.448001 31.841333 C 9.448001 31.484001 9.729333 31.190666 10.085334 31.174667 L 12.533333 31.068001 L 12.533333 20.650669 L 11.477333 20.650669 C 10.841332 20.656002 10.375999 20.805332 10.101334 21.093334 C 9.789333 21.420002 9.801333 21.845333 9.802667 21.864002 L 9.544 24.126667 C 9.504001 24.461334 9.22 24.714664 8.881333 24.714664 L 7.22 24.714664 C 7.034667 24.714664 6.857333 24.637333 6.730667 24.501331 C 6.604 24.365334 6.54 24.182667 6.554667 23.997334 L 7.001334 18.125332 C 7.028 17.777332 7.317333 17.509335 7.666667 17.509335 L 21.709333 17.509335 C 21.800001 17.509335 21.886667 17.528 21.965334 17.560001 C 22.014666 17.578667 22.061333 17.604 22.103998 17.634666 C 22.266668 17.749332 22.379999 17.927998 22.394667 18.125332 L 22.710669 22.287998 L 32.069332 22.287998 C 32.437332 22.287998 32.736 22.586666 32.736 22.954666 L 33.371998 28.720001 C 33.393333 28.909332 33.332001 29.096001 33.205334 29.238668 C 33.078667 29.378668 32.899998 29.459999 32.709332 29.459999 L 30.985332 29.459999 C 30.66 29.459999 30.382668 29.225334 30.327999 28.903999 L 29.966667 26.754665 C 29.941334 26.605335 29.684002 25.332001 28.290668 25.317333 L 25.536001 25.310665 L 25.305334 25.315998 C 25.262667 25.317333 25.223999 25.315998 25.184 25.310665 L 24.866667 25.310665 L 24.866667 28.777334 L 26.165335 28.777334 C 26.286667 28.774666 26.385332 28.74 26.445333 28.670668 C 26.526667 28.578667 26.558668 28.417334 26.537333 28.213333 L 26.533333 26.976002 C 26.533333 26.607998 26.832001 26.309334 27.200001 26.309334 L 29.007999 26.309334 C 29.375999 26.309334 29.674667 26.607998 29.674667 26.976002 L 29.674667 33.750664 C 29.674667 34.118668 29.375999 34.417336 29.007999 34.417336 L 27.200001 34.417336 C 26.832001 34.417336 26.533333 34.118668 26.533333 33.750664 L 26.533333 32.701332 C 26.533333 31.839998 26.285334 31.989334 26.040001 31.950666 L 24.866667 31.950666 L 24.866667 35.90667 L 28.091999 35.90667 C 28.133335 35.897331 28.175999 35.893333 28.221333 35.893333 C 29.342667 35.893333 30.056 35.514664 30.343998 34.76667 C 30.396 34.632004 30.442669 34.501335 30.486668 34.374664 C 30.133335 34.35733 29.852001 34.066666 29.852001 33.709335 L 29.852001 31.828001 C 29.852001 31.459999 30.150669 31.161333 30.518665 31.161333 L 31.779999 31.161333 C 32.48 31.081335 32.817333 30.830666 33.509335 29.823999 L 36.178669 25.882668 L 32.675999 20.590668 C 32.548 20.545334 32.385334 20.528 32.188 20.544003 L 30.858665 20.545334 C 30.490665 20.545334 30.191998 20.246666 30.191998 19.878666 L 30.191998 18 C 30.191998 17.632 30.490665 17.333332 30.858665 17.333332 L 37.880001 17.333332 C 38.248001 17.333332 38.546665 17.632 38.546665 18 L 38.546665 19.881332 C 38.546665 20.249332 38.248001 20.548 37.880001 20.548 L 37.769333 20.548 L 38.771999 22.056 L 39.793335 20.548 L 39.455997 20.548 C 39.088001 20.548 38.789333 20.249332 38.789333 19.881332 L 38.789333 18 C 38.789333 17.632 39.088001 17.333332 39.455997 17.333332 L 45.710667 17.333332 C 46.078663 17.333332 46.377335 17.632 46.377335 18 L 46.377335 19.881332 C 46.377335 20.249332 46.078663 20.548 45.710667 20.548 L 44.965332 20.548 C 43.717331 20.542667 43.385334 20.936001 43.151997 21.329334 L 40.688 24.938667 L 44.728001 31.014666 C 44.770664 31.075998 44.880001 31.161333 45.021332 31.164 L 46.578663 31.164 C 46.946667 31.164 47.245331 31.462667 47.245331 31.830666 L 47.245331 33.711998 C 47.245331 34.080002 46.946667 34.37867 46.578663 34.37867 L 39.577332 34.37867 C 39.209335 34.37867 38.910664 34.080002 38.910664 33.711998 L 38.910664 31.830666 C 38.910664 31.462667 39.209335 31.164 39.577332 31.164 L 39.678665 31.164 L 38.081333 28.755999 L 36.437332 31.164 L 36.774666 31.164 C 37.142666 31.164 37.441334 31.462667 37.441334 31.830666 L 37.441334 33.711998 C 37.441334 34.080002 37.142666 34.37867 36.774666 34.37867 L 33.639999 34.37867 L 32.962666 38.541328 C 32.910667 38.863998 32.632 39.099998 32.305332 39.099998 Z"/>
    <linearGradient id="linearGradient3" x1="26.898667" y1="39.796" x2="26.898667" y2="19.361333" gradientUnits="userSpaceOnUse">
        <stop offset="0.006" stop-color="#d2d2d2" stop-opacity="1"/>
        <stop offset="1" stop-color="#f1f1f1" stop-opacity="1"/>
    </linearGradient>
    <path id="path4" fill="url(#linearGradient3)" stroke="none" d="M 45.017334 31.829332 C 44.636002 31.825333 44.334667 31.613333 44.173336 31.382668 L 39.883999 24.933334 L 42.578663 20.987999 C 43.048 20.198666 43.821335 19.866665 44.965332 19.880001 L 45.710667 19.880001 L 45.710667 18 L 39.453335 18 L 39.453335 18.229336 L 39.453335 19.881332 L 40.021332 19.881332 C 40.619999 19.921333 40.883999 20.152 40.630665 20.495998 L 38.765335 23.251999 L 36.635998 20.050667 L 36.653332 20.050667 C 36.662666 19.974667 36.810665 19.920002 37.073334 19.880001 L 37.877335 19.880001 L 37.877335 18 L 30.855999 18 L 30.855999 18.229336 L 30.855999 19.881332 L 32.134666 19.881332 C 32.533333 19.850666 32.865334 19.914669 33.130665 20.074665 L 36.978664 25.888 L 34.057331 30.204 C 33.345333 31.24 32.869335 31.710669 31.778667 31.829332 L 30.515999 31.829332 L 30.515999 32.05867 L 30.515999 33.71067 L 31.389332 33.71067 C 31.290668 34.071999 31.152 34.515999 30.962666 35.008003 C 30.430668 36.390663 29.005333 36.561333 28.218666 36.561333 L 28.236 36.573334 L 24.197334 36.573334 L 24.197334 31.283998 L 24.453333 31.283998 L 26.139999 31.283998 L 26.139999 31.292 C 26.829332 31.292 27.197334 31.676001 27.197334 32.701332 L 27.197334 33.751999 L 27.438667 33.751999 L 29.005333 33.751999 L 29.005333 31.283998 L 29.005333 29.445333 L 29.005333 26.977333 L 27.197334 26.977333 L 27.197334 28.143999 C 27.279999 28.925333 26.845335 29.433334 26.161333 29.445333 L 24.197334 29.445333 L 24.197334 24.645332 L 25.298668 24.645332 L 25.274666 24.652 C 25.274666 24.652 25.348 24.649334 25.533333 24.645332 L 27.621334 24.645332 C 27.832001 24.646667 28.048 24.649334 28.296001 24.652 C 30.317333 24.673332 30.622665 26.645332 30.622665 26.645332 L 30.984001 28.794668 L 32.708 28.794668 L 32.069332 22.981335 L 32.069332 22.955997 L 24.197334 22.955997 L 22.093332 22.955997 L 21.729334 18.177334 L 21.708 18.182667 L 21.708 18.177334 L 7.666667 18.177334 L 7.22 24.049335 L 8.88 24.049335 L 9.136001 21.899998 C 9.136001 21.899998 9.007999 20.006664 11.476 19.985332 L 13.199999 19.985332 L 13.199999 31.709333 L 13.157333 31.709333 L 10.114667 31.842667 L 10.114667 33.666664 L 19.306665 33.666664 L 19.306665 31.842667 L 16.264 31.714666 L 16.264 19.986668 L 17.924002 19.986668 C 20.392 20.007999 20.264 21.901333 20.264 21.901333 L 20.389334 22.955997 L 19.029333 22.955997 L 19.029333 24.645332 L 20.773333 24.645332 L 21.134666 24.645332 L 21.134666 24.688 L 21.134666 36.573334 L 19.028 36.573334 L 19.028 38.411995 L 20.772001 38.411995 L 30.869335 38.411995 L 30.899998 38.433334 L 32.304001 38.433334 L 33.070667 33.709335 L 36.771999 33.709335 L 36.771999 31.828001 L 35.832001 31.828001 C 35.538666 31.742666 35.446667 31.461334 35.560001 31.262667 L 38.088001 27.561333 L 40.71867 31.534666 C 40.804001 31.709333 40.685333 31.836 40.391998 31.828001 L 39.578663 31.828001 L 39.578663 32.057335 L 39.578663 33.709335 L 46.580002 33.709335 L 46.580002 31.828001 L 45.017334 31.828001 Z"/>
</svg>
